<mxfile host="65bd71144e">
    <diagram id="0nroqy5v-XG7WrGbH8JJ" name="第 1 页">
        <mxGraphModel dx="3240" dy="3879" grid="1" gridSize="10" guides="1" tooltips="1" connect="1" arrows="1" fold="1" page="1" pageScale="1" pageWidth="827" pageHeight="1169" background="#ffffff" math="0" shadow="0">
            <root>
                <mxCell id="0"/>
                <mxCell id="1" parent="0"/>
                <mxCell id="3" value="" style="endArrow=none;dashed=1;html=1;" parent="1" edge="1">
                    <mxGeometry width="50" height="50" relative="1" as="geometry">
                        <mxPoint x="124" y="450" as="sourcePoint"/>
                        <mxPoint x="764" y="450" as="targetPoint"/>
                    </mxGeometry>
                </mxCell>
                <mxCell id="5" value="prefilling" style="shape=process;whiteSpace=wrap;html=1;backgroundOutline=1;" parent="1" vertex="1">
                    <mxGeometry x="116" y="150" width="66" height="20" as="geometry"/>
                </mxCell>
                <mxCell id="6" value="decoding" style="shape=process;whiteSpace=wrap;html=1;backgroundOutline=1;" parent="1" vertex="1">
                    <mxGeometry x="478" y="150" width="66" height="20" as="geometry"/>
                </mxCell>
                <mxCell id="7" value="" style="endArrow=none;dashed=1;html=1;" parent="1" edge="1">
                    <mxGeometry width="50" height="50" relative="1" as="geometry">
                        <mxPoint x="430" y="520" as="sourcePoint"/>
                        <mxPoint x="430" y="150" as="targetPoint"/>
                    </mxGeometry>
                </mxCell>
                <mxCell id="57" style="edgeStyle=none;html=1;entryX=0;entryY=0.5;entryDx=0;entryDy=0;" parent="1" source="10" target="36" edge="1">
                    <mxGeometry relative="1" as="geometry"/>
                </mxCell>
                <mxCell id="10" value="A,B,C,D" style="text;html=1;align=center;verticalAlign=middle;resizable=0;points=[];autosize=1;strokeColor=#006EAF;fillColor=#1ba1e2;fontColor=#ffffff;" parent="1" vertex="1">
                    <mxGeometry x="114" y="197.5" width="70" height="30" as="geometry"/>
                </mxCell>
                <mxCell id="45" value="" style="group" parent="1" vertex="1" connectable="0">
                    <mxGeometry x="224" y="190" width="120" height="227.5" as="geometry"/>
                </mxCell>
                <mxCell id="36" value="" style="rounded=1;whiteSpace=wrap;html=1;fillColor=#60a917;fontColor=#ffffff;strokeColor=#2D7600;" parent="45" vertex="1">
                    <mxGeometry width="120" height="45" as="geometry"/>
                </mxCell>
                <mxCell id="27" value="Attention&#xa;module" style="rounded=0;whiteSpace=wrap;fillColor=#008a00;fontColor=#FFFFFF;strokeColor=#005700;fontStyle=0;labelBackgroundColor=none;" parent="45" vertex="1">
                    <mxGeometry x="10" y="7.5" width="60" height="30" as="geometry"/>
                </mxCell>
                <mxCell id="28" value="MLP" style="rounded=0;whiteSpace=wrap;fillColor=#008a00;fontColor=#ffffff;strokeColor=#005700;" parent="45" vertex="1">
                    <mxGeometry x="77.5" y="7.5" width="32.5" height="30" as="geometry"/>
                </mxCell>
                <mxCell id="37" value="" style="rounded=1;whiteSpace=wrap;html=1;fillColor=#60a917;fontColor=#ffffff;strokeColor=#2D7600;" parent="45" vertex="1">
                    <mxGeometry y="62.5" width="120" height="45" as="geometry"/>
                </mxCell>
                <mxCell id="38" value="Attention&#xa;module" style="rounded=0;whiteSpace=wrap;fillColor=#008a00;fontColor=#ffffff;strokeColor=#005700;" parent="45" vertex="1">
                    <mxGeometry x="10" y="70" width="60" height="30" as="geometry"/>
                </mxCell>
                <mxCell id="39" value="MLP" style="rounded=0;whiteSpace=wrap;fillColor=#008a00;fontColor=#ffffff;strokeColor=#005700;" parent="45" vertex="1">
                    <mxGeometry x="77.5" y="70" width="32.5" height="30" as="geometry"/>
                </mxCell>
                <mxCell id="41" value=".&lt;div&gt;.&lt;/div&gt;&lt;div&gt;.&lt;/div&gt;" style="text;html=1;align=center;verticalAlign=middle;resizable=0;points=[];autosize=1;strokeColor=none;fillColor=none;" parent="45" vertex="1">
                    <mxGeometry x="45" y="112.5" width="30" height="60" as="geometry"/>
                </mxCell>
                <mxCell id="42" value="" style="rounded=1;whiteSpace=wrap;html=1;fillColor=#60a917;fontColor=#ffffff;strokeColor=#2D7600;" parent="45" vertex="1">
                    <mxGeometry y="182.5" width="120" height="45" as="geometry"/>
                </mxCell>
                <mxCell id="43" value="Attention&#xa;module" style="rounded=0;whiteSpace=wrap;fillColor=#008a00;fontColor=#ffffff;strokeColor=#005700;" parent="45" vertex="1">
                    <mxGeometry x="10" y="190" width="60" height="30" as="geometry"/>
                </mxCell>
                <mxCell id="44" value="MLP" style="rounded=0;whiteSpace=wrap;fillColor=#008a00;fontColor=#ffffff;strokeColor=#005700;" parent="45" vertex="1">
                    <mxGeometry x="77.5" y="190" width="32.5" height="30" as="geometry"/>
                </mxCell>
                <mxCell id="46" value="" style="group" parent="1" vertex="1" connectable="0">
                    <mxGeometry x="600" y="190" width="120" height="227.5" as="geometry"/>
                </mxCell>
                <mxCell id="47" value="" style="rounded=1;whiteSpace=wrap;html=1;fillColor=#60a917;fontColor=#ffffff;strokeColor=#2D7600;" parent="46" vertex="1">
                    <mxGeometry width="120" height="45" as="geometry"/>
                </mxCell>
                <mxCell id="48" value="Attention&#xa;module" style="rounded=0;whiteSpace=wrap;fillColor=#008a00;fontColor=#ffffff;strokeColor=#005700;" parent="46" vertex="1">
                    <mxGeometry x="10" y="7.5" width="60" height="30" as="geometry"/>
                </mxCell>
                <mxCell id="49" value="MLP" style="rounded=0;whiteSpace=wrap;fillColor=#008a00;fontColor=#ffffff;strokeColor=#005700;" parent="46" vertex="1">
                    <mxGeometry x="77.5" y="7.5" width="32.5" height="30" as="geometry"/>
                </mxCell>
                <mxCell id="50" value="" style="rounded=1;whiteSpace=wrap;html=1;fillColor=#60a917;fontColor=#ffffff;strokeColor=#2D7600;" parent="46" vertex="1">
                    <mxGeometry y="62.5" width="120" height="45" as="geometry"/>
                </mxCell>
                <mxCell id="51" value="Attention&#xa;module" style="rounded=0;whiteSpace=wrap;fillColor=#008a00;fontColor=#ffffff;strokeColor=#005700;" parent="46" vertex="1">
                    <mxGeometry x="10" y="70" width="60" height="30" as="geometry"/>
                </mxCell>
                <mxCell id="52" value="MLP" style="rounded=0;whiteSpace=wrap;fillColor=#008a00;fontColor=#ffffff;strokeColor=#005700;" parent="46" vertex="1">
                    <mxGeometry x="77.5" y="70" width="32.5" height="30" as="geometry"/>
                </mxCell>
                <mxCell id="53" value=".&lt;div&gt;.&lt;/div&gt;&lt;div&gt;.&lt;/div&gt;" style="text;html=1;align=center;verticalAlign=middle;resizable=0;points=[];autosize=1;strokeColor=none;fillColor=none;" parent="46" vertex="1">
                    <mxGeometry x="45" y="112.5" width="30" height="60" as="geometry"/>
                </mxCell>
                <mxCell id="54" value="" style="rounded=1;whiteSpace=wrap;html=1;fillColor=#60a917;fontColor=#ffffff;strokeColor=#2D7600;" parent="46" vertex="1">
                    <mxGeometry y="182.5" width="120" height="45" as="geometry"/>
                </mxCell>
                <mxCell id="55" value="Attention&#xa;module" style="rounded=0;whiteSpace=wrap;fillColor=#008a00;fontColor=#ffffff;strokeColor=#005700;" parent="46" vertex="1">
                    <mxGeometry x="10" y="190" width="60" height="30" as="geometry"/>
                </mxCell>
                <mxCell id="56" value="MLP" style="rounded=0;whiteSpace=wrap;fillColor=#008a00;fontColor=#ffffff;strokeColor=#005700;" parent="46" vertex="1">
                    <mxGeometry x="77.5" y="190" width="32.5" height="30" as="geometry"/>
                </mxCell>
                <mxCell id="67" value="KVCache&lt;div&gt;offload&lt;/div&gt;" style="shape=singleArrow;direction=south;whiteSpace=wrap;html=1;arrowWidth=0.6753090187355307;arrowSize=0.48177791341145804;" parent="1" vertex="1">
                    <mxGeometry x="244" y="430" width="90" height="80" as="geometry"/>
                </mxCell>
                <mxCell id="69" value="KVCache clusters with index" style="shape=cube;whiteSpace=wrap;html=1;boundedLbl=1;backgroundOutline=1;darkOpacity=0.05;darkOpacity2=0.1;size=10;" parent="1" vertex="1">
                    <mxGeometry x="194" y="520" width="560" height="50" as="geometry"/>
                </mxCell>
                <mxCell id="70" style="edgeStyle=none;html=1;entryX=0.411;entryY=0;entryDx=0;entryDy=0;entryPerimeter=0;fillColor=#dae8fc;strokeColor=#6c8ebf;jumpSize=6;shadow=0;arcSize=20;spacing=2;exitX=1;exitY=0.5;exitDx=0;exitDy=0;" parent="1" source="36" edge="1">
                    <mxGeometry relative="1" as="geometry">
                        <mxPoint x="350" y="213" as="sourcePoint"/>
                        <mxPoint x="400.15999999999985" y="520" as="targetPoint"/>
                        <Array as="points">
                            <mxPoint x="400" y="213"/>
                        </Array>
                    </mxGeometry>
                </mxCell>
                <mxCell id="71" style="edgeStyle=none;html=1;exitX=1;exitY=0.5;exitDx=0;exitDy=0;fillColor=#dae8fc;strokeColor=#6c8ebf;" parent="1" source="37" edge="1">
                    <mxGeometry relative="1" as="geometry">
                        <mxPoint x="384" y="520" as="targetPoint"/>
                        <Array as="points">
                            <mxPoint x="384" y="275"/>
                            <mxPoint x="384" y="420"/>
                        </Array>
                    </mxGeometry>
                </mxCell>
                <mxCell id="72" style="edgeStyle=none;html=1;exitX=1;exitY=0.5;exitDx=0;exitDy=0;fillColor=#dae8fc;strokeColor=#6c8ebf;" parent="1" source="42" edge="1">
                    <mxGeometry relative="1" as="geometry">
                        <mxPoint x="362" y="520" as="targetPoint"/>
                        <Array as="points">
                            <mxPoint x="362" y="395"/>
                            <mxPoint x="362" y="480"/>
                        </Array>
                    </mxGeometry>
                </mxCell>
                <mxCell id="74" value="" style="endArrow=classic;html=1;entryX=0;entryY=0.5;entryDx=0;entryDy=0;fillColor=#a20025;strokeColor=#6F0000;exitX=0.574;exitY=0.005;exitDx=0;exitDy=0;exitPerimeter=0;" parent="1" target="47" edge="1">
                    <mxGeometry width="50" height="50" relative="1" as="geometry">
                        <mxPoint x="540.44" y="520" as="sourcePoint"/>
                        <mxPoint x="625" y="212.25" as="targetPoint"/>
                        <Array as="points">
                            <mxPoint x="540" y="359.75"/>
                            <mxPoint x="540" y="212.75"/>
                        </Array>
                    </mxGeometry>
                </mxCell>
                <mxCell id="77" value="F" style="text;html=1;align=center;verticalAlign=middle;resizable=0;points=[];autosize=1;strokeColor=#006EAF;fillColor=#1ba1e2;fontColor=#ffffff;" parent="1" vertex="1">
                    <mxGeometry x="760" y="380" width="30" height="30" as="geometry"/>
                </mxCell>
                <mxCell id="78" style="edgeStyle=none;html=1;" parent="1" source="54" target="77" edge="1">
                    <mxGeometry relative="1" as="geometry"/>
                </mxCell>
                <mxCell id="84" value="GPU" style="rounded=0;whiteSpace=wrap;html=1;fillColor=#d5e8d4;strokeColor=#82b366;" parent="1" vertex="1">
                    <mxGeometry x="54" y="150" width="40" height="290" as="geometry"/>
                </mxCell>
                <mxCell id="85" value="CPU" style="rounded=0;whiteSpace=wrap;html=1;fillColor=#d5e8d4;strokeColor=#82b366;" parent="1" vertex="1">
                    <mxGeometry x="54" y="460" width="40" height="110" as="geometry"/>
                </mxCell>
                <mxCell id="88" style="edgeStyle=none;html=1;" parent="1" source="86" edge="1">
                    <mxGeometry relative="1" as="geometry">
                        <mxPoint x="600" y="212.5" as="targetPoint"/>
                    </mxGeometry>
                </mxCell>
                <mxCell id="86" value="A,B,C,D,E" style="text;html=1;align=center;verticalAlign=middle;resizable=0;points=[];autosize=1;strokeColor=#006EAF;fillColor=#1ba1e2;fontColor=#ffffff;" parent="1" vertex="1">
                    <mxGeometry x="440" y="197.5" width="80" height="30" as="geometry"/>
                </mxCell>
                <mxCell id="89" value="" style="endArrow=classic;html=1;entryX=0;entryY=0.5;entryDx=0;entryDy=0;fillColor=#a20025;strokeColor=#6F0000;exitX=0.574;exitY=0.005;exitDx=0;exitDy=0;exitPerimeter=0;" parent="1" target="50" edge="1">
                    <mxGeometry width="50" height="50" relative="1" as="geometry">
                        <mxPoint x="560.44" y="520" as="sourcePoint"/>
                        <mxPoint x="610" y="265" as="targetPoint"/>
                        <Array as="points">
                            <mxPoint x="560" y="359.75"/>
                            <mxPoint x="560" y="275"/>
                        </Array>
                    </mxGeometry>
                </mxCell>
                <mxCell id="90" value="" style="endArrow=classic;html=1;entryX=0;entryY=0.5;entryDx=0;entryDy=0;fillColor=#a20025;strokeColor=#6F0000;exitX=0.574;exitY=0.005;exitDx=0;exitDy=0;exitPerimeter=0;" parent="1" target="54" edge="1">
                    <mxGeometry width="50" height="50" relative="1" as="geometry">
                        <mxPoint x="580.44" y="520" as="sourcePoint"/>
                        <mxPoint x="610" y="385" as="targetPoint"/>
                        <Array as="points">
                            <mxPoint x="580" y="395"/>
                        </Array>
                    </mxGeometry>
                </mxCell>
                <mxCell id="91" value="" style="endArrow=none;dashed=1;html=1;" parent="1" edge="1">
                    <mxGeometry width="50" height="50" relative="1" as="geometry">
                        <mxPoint x="130" y="-190" as="sourcePoint"/>
                        <mxPoint x="770" y="-190" as="targetPoint"/>
                    </mxGeometry>
                </mxCell>
                <mxCell id="92" value="预填充" style="shape=process;whiteSpace=wrap;html=1;backgroundOutline=1;" parent="1" vertex="1">
                    <mxGeometry x="122" y="-490" width="66" height="20" as="geometry"/>
                </mxCell>
                <mxCell id="93" value="解码" style="shape=process;whiteSpace=wrap;html=1;backgroundOutline=1;" parent="1" vertex="1">
                    <mxGeometry x="484" y="-490" width="66" height="20" as="geometry"/>
                </mxCell>
                <mxCell id="94" value="" style="endArrow=none;dashed=1;html=1;" parent="1" edge="1">
                    <mxGeometry width="50" height="50" relative="1" as="geometry">
                        <mxPoint x="436" y="-120" as="sourcePoint"/>
                        <mxPoint x="436" y="-490" as="targetPoint"/>
                    </mxGeometry>
                </mxCell>
                <mxCell id="95" style="edgeStyle=none;html=1;entryX=0;entryY=0.5;entryDx=0;entryDy=0;" parent="1" source="96" target="98" edge="1">
                    <mxGeometry relative="1" as="geometry"/>
                </mxCell>
                <mxCell id="96" value="A,B,C,D" style="text;html=1;align=center;verticalAlign=middle;resizable=0;points=[];autosize=1;strokeColor=#006EAF;fillColor=#1ba1e2;fontColor=#ffffff;" parent="1" vertex="1">
                    <mxGeometry x="120" y="-442.5" width="70" height="30" as="geometry"/>
                </mxCell>
                <mxCell id="97" value="" style="group" parent="1" vertex="1" connectable="0">
                    <mxGeometry x="230" y="-450" width="120" height="227.5" as="geometry"/>
                </mxCell>
                <mxCell id="98" value="" style="rounded=1;whiteSpace=wrap;html=1;fillColor=#60a917;fontColor=#ffffff;strokeColor=#2D7600;" parent="97" vertex="1">
                    <mxGeometry width="120" height="45" as="geometry"/>
                </mxCell>
                <mxCell id="99" value="注意力" style="rounded=0;whiteSpace=wrap;fillColor=#008a00;fontColor=#FFFFFF;strokeColor=#005700;fontStyle=0;labelBackgroundColor=none;" parent="97" vertex="1">
                    <mxGeometry x="10" y="7.5" width="60" height="30" as="geometry"/>
                </mxCell>
                <mxCell id="100" value="MLP" style="rounded=0;whiteSpace=wrap;fillColor=#008a00;fontColor=#ffffff;strokeColor=#005700;" parent="97" vertex="1">
                    <mxGeometry x="77.5" y="7.5" width="32.5" height="30" as="geometry"/>
                </mxCell>
                <mxCell id="101" value="" style="rounded=1;whiteSpace=wrap;html=1;fillColor=#60a917;fontColor=#ffffff;strokeColor=#2D7600;" parent="97" vertex="1">
                    <mxGeometry y="62.5" width="120" height="45" as="geometry"/>
                </mxCell>
                <mxCell id="102" value="注意力" style="rounded=0;whiteSpace=wrap;fillColor=#008a00;fontColor=#ffffff;strokeColor=#005700;" parent="97" vertex="1">
                    <mxGeometry x="10" y="70" width="60" height="30" as="geometry"/>
                </mxCell>
                <mxCell id="103" value="MLP" style="rounded=0;whiteSpace=wrap;fillColor=#008a00;fontColor=#ffffff;strokeColor=#005700;" parent="97" vertex="1">
                    <mxGeometry x="77.5" y="70" width="32.5" height="30" as="geometry"/>
                </mxCell>
                <mxCell id="104" value=".&lt;div&gt;.&lt;/div&gt;&lt;div&gt;.&lt;/div&gt;" style="text;html=1;align=center;verticalAlign=middle;resizable=0;points=[];autosize=1;strokeColor=none;fillColor=none;" parent="97" vertex="1">
                    <mxGeometry x="45" y="112.5" width="30" height="60" as="geometry"/>
                </mxCell>
                <mxCell id="105" value="" style="rounded=1;whiteSpace=wrap;html=1;fillColor=#60a917;fontColor=#ffffff;strokeColor=#2D7600;" parent="97" vertex="1">
                    <mxGeometry y="182.5" width="120" height="45" as="geometry"/>
                </mxCell>
                <mxCell id="106" value="注意力" style="rounded=0;whiteSpace=wrap;fillColor=#008a00;fontColor=#ffffff;strokeColor=#005700;" parent="97" vertex="1">
                    <mxGeometry x="10" y="190" width="60" height="30" as="geometry"/>
                </mxCell>
                <mxCell id="107" value="MLP" style="rounded=0;whiteSpace=wrap;fillColor=#008a00;fontColor=#ffffff;strokeColor=#005700;" parent="97" vertex="1">
                    <mxGeometry x="77.5" y="190" width="32.5" height="30" as="geometry"/>
                </mxCell>
                <mxCell id="108" value="" style="group" parent="1" vertex="1" connectable="0">
                    <mxGeometry x="606" y="-450" width="120" height="227.5" as="geometry"/>
                </mxCell>
                <mxCell id="109" value="" style="rounded=1;whiteSpace=wrap;html=1;fillColor=#60a917;fontColor=#ffffff;strokeColor=#2D7600;" parent="108" vertex="1">
                    <mxGeometry width="120" height="45" as="geometry"/>
                </mxCell>
                <mxCell id="110" value="注意力" style="rounded=0;whiteSpace=wrap;fillColor=#008a00;fontColor=#ffffff;strokeColor=#005700;" parent="108" vertex="1">
                    <mxGeometry x="10" y="7.5" width="60" height="30" as="geometry"/>
                </mxCell>
                <mxCell id="111" value="MLP" style="rounded=0;whiteSpace=wrap;fillColor=#008a00;fontColor=#ffffff;strokeColor=#005700;" parent="108" vertex="1">
                    <mxGeometry x="77.5" y="7.5" width="32.5" height="30" as="geometry"/>
                </mxCell>
                <mxCell id="112" value="" style="rounded=1;whiteSpace=wrap;html=1;fillColor=#60a917;fontColor=#ffffff;strokeColor=#2D7600;" parent="108" vertex="1">
                    <mxGeometry y="62.5" width="120" height="45" as="geometry"/>
                </mxCell>
                <mxCell id="113" value="注意力" style="rounded=0;whiteSpace=wrap;fillColor=#008a00;fontColor=#ffffff;strokeColor=#005700;" parent="108" vertex="1">
                    <mxGeometry x="10" y="70" width="60" height="30" as="geometry"/>
                </mxCell>
                <mxCell id="114" value="MLP" style="rounded=0;whiteSpace=wrap;fillColor=#008a00;fontColor=#ffffff;strokeColor=#005700;" parent="108" vertex="1">
                    <mxGeometry x="77.5" y="70" width="32.5" height="30" as="geometry"/>
                </mxCell>
                <mxCell id="115" value=".&lt;div&gt;.&lt;/div&gt;&lt;div&gt;.&lt;/div&gt;" style="text;html=1;align=center;verticalAlign=middle;resizable=0;points=[];autosize=1;strokeColor=none;fillColor=none;" parent="108" vertex="1">
                    <mxGeometry x="45" y="112.5" width="30" height="60" as="geometry"/>
                </mxCell>
                <mxCell id="116" value="" style="rounded=1;whiteSpace=wrap;html=1;fillColor=#60a917;fontColor=#ffffff;strokeColor=#2D7600;" parent="108" vertex="1">
                    <mxGeometry y="182.5" width="120" height="45" as="geometry"/>
                </mxCell>
                <mxCell id="117" value="注意力" style="rounded=0;whiteSpace=wrap;fillColor=#008a00;fontColor=#ffffff;strokeColor=#005700;" parent="108" vertex="1">
                    <mxGeometry x="10" y="190" width="60" height="30" as="geometry"/>
                </mxCell>
                <mxCell id="118" value="MLP" style="rounded=0;whiteSpace=wrap;fillColor=#008a00;fontColor=#ffffff;strokeColor=#005700;" parent="108" vertex="1">
                    <mxGeometry x="77.5" y="190" width="32.5" height="30" as="geometry"/>
                </mxCell>
                <mxCell id="119" value="KVCache&lt;div&gt;offload&lt;/div&gt;" style="shape=singleArrow;direction=south;whiteSpace=wrap;html=1;arrowWidth=0.6753090187355307;arrowSize=0.48177791341145804;" parent="1" vertex="1">
                    <mxGeometry x="250" y="-210" width="90" height="80" as="geometry"/>
                </mxCell>
                <mxCell id="120" value="KVCache建立过索引的聚类" style="shape=cube;whiteSpace=wrap;html=1;boundedLbl=1;backgroundOutline=1;darkOpacity=0.05;darkOpacity2=0.1;size=10;" parent="1" vertex="1">
                    <mxGeometry x="200" y="-120" width="560" height="50" as="geometry"/>
                </mxCell>
                <mxCell id="121" style="edgeStyle=none;html=1;entryX=0.411;entryY=0;entryDx=0;entryDy=0;entryPerimeter=0;fillColor=#dae8fc;strokeColor=#6c8ebf;jumpSize=6;shadow=0;arcSize=20;spacing=2;exitX=1;exitY=0.5;exitDx=0;exitDy=0;" parent="1" source="98" edge="1">
                    <mxGeometry relative="1" as="geometry">
                        <mxPoint x="356" y="-427" as="sourcePoint"/>
                        <mxPoint x="406.15999999999985" y="-120" as="targetPoint"/>
                        <Array as="points">
                            <mxPoint x="406" y="-427"/>
                        </Array>
                    </mxGeometry>
                </mxCell>
                <mxCell id="122" style="edgeStyle=none;html=1;exitX=1;exitY=0.5;exitDx=0;exitDy=0;fillColor=#dae8fc;strokeColor=#6c8ebf;" parent="1" source="101" edge="1">
                    <mxGeometry relative="1" as="geometry">
                        <mxPoint x="390" y="-120" as="targetPoint"/>
                        <Array as="points">
                            <mxPoint x="390" y="-365"/>
                            <mxPoint x="390" y="-220"/>
                        </Array>
                    </mxGeometry>
                </mxCell>
                <mxCell id="123" style="edgeStyle=none;html=1;exitX=1;exitY=0.5;exitDx=0;exitDy=0;fillColor=#dae8fc;strokeColor=#6c8ebf;" parent="1" source="105" edge="1">
                    <mxGeometry relative="1" as="geometry">
                        <mxPoint x="368" y="-120" as="targetPoint"/>
                        <Array as="points">
                            <mxPoint x="368" y="-245"/>
                            <mxPoint x="368" y="-160"/>
                        </Array>
                    </mxGeometry>
                </mxCell>
                <mxCell id="124" value="" style="endArrow=classic;html=1;entryX=0;entryY=0.5;entryDx=0;entryDy=0;fillColor=#a20025;strokeColor=#6F0000;exitX=0.574;exitY=0.005;exitDx=0;exitDy=0;exitPerimeter=0;" parent="1" target="109" edge="1">
                    <mxGeometry width="50" height="50" relative="1" as="geometry">
                        <mxPoint x="546.44" y="-120" as="sourcePoint"/>
                        <mxPoint x="631" y="-427.75" as="targetPoint"/>
                        <Array as="points">
                            <mxPoint x="546" y="-280.25"/>
                            <mxPoint x="546" y="-427.25"/>
                        </Array>
                    </mxGeometry>
                </mxCell>
                <mxCell id="125" value="F" style="text;html=1;align=center;verticalAlign=middle;resizable=0;points=[];autosize=1;strokeColor=#006EAF;fillColor=#1ba1e2;fontColor=#ffffff;" parent="1" vertex="1">
                    <mxGeometry x="766" y="-260" width="30" height="30" as="geometry"/>
                </mxCell>
                <mxCell id="126" style="edgeStyle=none;html=1;" parent="1" source="116" target="125" edge="1">
                    <mxGeometry relative="1" as="geometry"/>
                </mxCell>
                <mxCell id="127" value="GPU" style="rounded=0;whiteSpace=wrap;html=1;fillColor=#d5e8d4;strokeColor=#82b366;" parent="1" vertex="1">
                    <mxGeometry x="60" y="-490" width="40" height="290" as="geometry"/>
                </mxCell>
                <mxCell id="128" value="CPU" style="rounded=0;whiteSpace=wrap;html=1;fillColor=#d5e8d4;strokeColor=#82b366;" parent="1" vertex="1">
                    <mxGeometry x="60" y="-180" width="40" height="110" as="geometry"/>
                </mxCell>
                <mxCell id="129" style="edgeStyle=none;html=1;" parent="1" source="130" edge="1">
                    <mxGeometry relative="1" as="geometry">
                        <mxPoint x="606" y="-427.5" as="targetPoint"/>
                    </mxGeometry>
                </mxCell>
                <mxCell id="130" value="A,B,C,D,E" style="text;html=1;align=center;verticalAlign=middle;resizable=0;points=[];autosize=1;strokeColor=#006EAF;fillColor=#1ba1e2;fontColor=#ffffff;" parent="1" vertex="1">
                    <mxGeometry x="446" y="-442.5" width="80" height="30" as="geometry"/>
                </mxCell>
                <mxCell id="131" value="" style="endArrow=classic;html=1;entryX=0;entryY=0.5;entryDx=0;entryDy=0;fillColor=#a20025;strokeColor=#6F0000;exitX=0.574;exitY=0.005;exitDx=0;exitDy=0;exitPerimeter=0;" parent="1" target="112" edge="1">
                    <mxGeometry width="50" height="50" relative="1" as="geometry">
                        <mxPoint x="566.44" y="-120" as="sourcePoint"/>
                        <mxPoint x="616" y="-375" as="targetPoint"/>
                        <Array as="points">
                            <mxPoint x="566" y="-280.25"/>
                            <mxPoint x="566" y="-365"/>
                        </Array>
                    </mxGeometry>
                </mxCell>
                <mxCell id="132" value="" style="endArrow=classic;html=1;entryX=0;entryY=0.5;entryDx=0;entryDy=0;fillColor=#a20025;strokeColor=#6F0000;exitX=0.574;exitY=0.005;exitDx=0;exitDy=0;exitPerimeter=0;" parent="1" target="116" edge="1">
                    <mxGeometry width="50" height="50" relative="1" as="geometry">
                        <mxPoint x="586.44" y="-120" as="sourcePoint"/>
                        <mxPoint x="616" y="-255" as="targetPoint"/>
                        <Array as="points">
                            <mxPoint x="586" y="-245"/>
                        </Array>
                    </mxGeometry>
                </mxCell>
            </root>
        </mxGraphModel>
    </diagram>
</mxfile>